     <svg  viewBox="0 0 605 605" id="icon-tw" width="100%" height="100%">
                <g id="PRE" stroke="none" stroke-width="1" fill="none" fill-rule="evenodd">
                        <path d="M340.008421,370.054345 L351.816424,364.961172 C356.890867,362.772401 361,356.519139 361,350.991717 L361,10.008283 C361,4.48276323 356.519139,0 350.991717,0 L10.008283,0 C4.48276323,0 0,4.48086093 0,10.008283 L0,221 L330.008417,221 C335.143632,221 339.374027,224.869691 339.936503,229.871374 C339.983987,230.26666 340.008421,230.66905 340.008421,231.077164 L340.008421,370.054345 L340.008421,370.054345 Z M201.028905,430.00069 L224.784875,419.753975 L224.784875,345.335534 C224.784875,339.811463 220.304572,335.334471 214.777837,335.334471 L-1.42108547e-14,335.334471 L0,350.991717 C0,353.387984 0.773281725,355.921678 2.06281951,358.201365 L191.028901,358.201365 C196.5471,358.201365 201.020484,362.669783 201.020484,368.20957 L201.020484,393.926949 C201.020484,394.66745 200.940026,395.389167 200.787423,396.083843 C200.945504,396.790066 201.028905,397.524529 201.028905,398.278529 L201.028905,430.00069 Z M155.295117,427.98379 L99.5407946,403.935154 L145.288079,403.935154 C150.814814,403.935154 155.295117,408.416823 155.295117,413.935759 L155.295117,427.98379 Z M270.518663,400.027517 L294.274633,389.780802 L294.274633,389.780802 L294.274633,276.743764 C294.274633,271.211664 289.794329,266.733788 284.267595,266.733788 L0,266.733788 L0,289.600683 L260.518659,289.600683 C266.036858,289.600683 270.510242,294.069101 270.510242,299.608887 C270.510242,299.608887 270.518663,306.856478 270.518663,306.995253 L270.518663,400.027517 Z M13,28.9980749 C13,23.4762906 17.4776309,19 23.0084183,19 L169.991582,19 C175.519079,19 180,23.4811691 180,28.9980749 L180,59.0019251 C180,64.5237094 175.522369,69 169.991582,69 L23.0084183,69 C17.4809215,69 13,64.5188309 13,59.0019251 L13,28.9980749 Z M13,158.998075 C13,153.476291 17.4776309,149 23.0084183,149 L169.991582,149 C175.519079,149 180,153.481169 180,158.998075 L180,189.001925 C180,194.523709 175.522369,199 169.991582,199 L23.0084183,199 C17.4809215,199 13,194.518831 13,189.001925 L13,158.998075 Z M13,93.9980749 C13,88.4762906 17.4726944,84 22.9938684,84 L60.0061316,84 C65.5255927,84 70,88.4811691 70,93.9980749 L70,124.001925 C70,129.523709 65.5273056,134 60.0061316,134 L22.9938684,134 C17.4744073,134 13,129.518831 13,124.001925 L13,93.9980749 Z M85,93.9980749 C85,88.4762906 89.4695805,84 95.0020066,84 L170.997993,84 C176.521949,84 181,88.4811691 181,93.9980749 L181,124.001925 C181,129.523709 176.53042,134 170.997993,134 L95.0020066,134 C89.4780509,134 85,129.518831 85,124.001925 L85,93.9980749 Z M238.408,108 C240.208,108 241,107.208 241,105.408 L241,96.984 C241,95.184 240.208,94.392 238.408,94.392 L218.536,94.392 L218.536,88.2 L232.576,88.2 C234.376,88.2 235.168,87.408 235.168,85.608 L235.168,77.904 C235.168,76.104 234.376,75.312 232.576,75.312 L218.536,75.312 L218.536,69.768 L238.408,69.768 C240.208,69.768 241,68.976 241,67.176 L241,58.752 C241,56.952 240.208,56.16 238.408,56.16 L205,56.16 C203.2,56.16 202.408,56.952 202.408,58.752 L202.408,105.408 C202.408,107.208 203.2,108 205,108 L238.408,108 Z M273.544,108 C282.832,108 288.448,103.536 288.448,95.328 L288.448,87.768 C288.448,79.704 283.984,76.824 277.216,75.816 L266.488,74.376 C265.264,74.232 264.544,73.368 264.544,72.072 C264.544,70.776 265.264,69.912 266.488,69.912 L283.264,69.912 C285.064,69.912 285.856,69.12 285.856,67.32 L285.856,58.752 C285.856,56.952 285.064,56.16 283.264,56.16 L263.104,56.16 C253.744,56.16 248.2,60.624 248.2,68.832 L248.2,76.392 C248.2,84.456 252.592,87.336 259.36,88.344 L270.16,89.856 C271.384,90 272.032,90.648 272.032,92.304 C272.032,93.456 271.384,94.392 270.16,94.392 L250.792,94.392 C248.992,94.392 248.2,95.184 248.2,96.984 L248.2,105.408 C248.2,107.208 248.992,108 250.792,108 L273.544,108 Z M320.776,108 C322.576,108 323.368,107.208 323.368,105.408 L323.368,70.056 L333.952,70.056 C335.752,70.056 336.544,69.264 336.544,67.464 L336.544,58.752 C336.544,56.952 335.752,56.16 333.952,56.16 L295.936,56.16 C294.136,56.16 293.344,56.952 293.344,58.752 L293.344,67.464 C293.344,69.264 294.136,70.056 295.936,70.056 L306.52,70.056 L306.52,105.408 C306.52,107.208 307.312,108 309.112,108 L320.776,108 Z M217.672,128.16 C211.192,128.16 207.016,131.688 207.016,139.032 L207.016,152.568 C207.016,154.368 207.808,155.16 209.608,155.16 L224.152,155.16 C225.952,155.16 226.744,154.368 226.744,152.568 L226.744,141.912 C226.744,140.112 225.952,139.32 224.152,139.32 L216.304,139.32 L216.304,138.24 C216.304,136.944 216.952,136.224 218.248,136.224 L223.216,136.224 C225.016,136.224 225.808,135.432 225.808,133.632 L225.808,130.752 C225.808,128.88 225.016,128.16 223.216,128.16 L217.672,128.16 Z M278.872,166.392 L278.872,141.84 C278.872,133.056 274.624,127.08 256.912,127.08 C239.2,127.08 234.88,133.056 234.88,141.84 L234.88,166.392 C234.88,175.176 239.2,181.08 256.912,181.08 C274.624,181.08 278.872,175.176 278.872,166.392 Z M251.152,163.8 L251.152,144.432 C251.152,142.56 252.016,141.12 256.912,141.12 C261.88,141.12 262.672,142.56 262.672,144.432 L262.672,163.8 C262.672,165.744 261.88,167.184 256.912,167.184 C252.016,167.184 251.152,165.744 251.152,163.8 Z M311.056,180 C324.664,180 328.768,174.024 328.768,165.24 L328.768,141.624 C328.768,132.84 324.88,127.08 307.168,127.08 C290.608,127.08 286.432,132.84 286.432,141.624 L286.432,148.536 C286.432,157.104 290.32,161.496 303.352,161.496 C307.168,161.496 310.192,161.136 312.496,160.416 L312.496,162 C312.496,165.528 311.488,166.32 307.96,166.32 L294.496,166.32 C292.696,166.32 291.904,167.112 291.904,168.912 L291.904,177.408 C291.904,179.208 292.624,180 294.496,180 L311.056,180 Z M312.496,147.024 C312.496,148.464 311.848,149.616 307.672,149.616 C303.352,149.616 302.704,148.464 302.704,147.024 L302.704,142.776 C302.704,141.264 303.352,140.112 307.672,140.112 C311.848,140.112 312.496,141.264 312.496,142.776 L312.496,147.024 Z" id="Combined-Shape" fill="#161616"></path>
                    </g>
        </svg>